PathFileType	4	(X/Y/Z)	Exemple_fichier.trc																																																																																																																															
DataRate	CameraRate	NumFrames	NumMarkers	Units	OrigDataRate	OrigDataStartFrame	OrigNumFrames																																																																																																																											
200	200	6	43	mm	200	251	2000																																																																																																																											
Frame#	Time	LFHD			RFHD			RBHD			LBHD			C7			T10			R10			CLAV			STRN			LSHO			LUPA			LELB			LFRA			LWRA			LWRB			LFIN0			LFINx			LFINy			RSHO			RUPA			RELB			RFRA			RWRA			RWRB			RFIN0			RFINx			RFINy			LASI			RASI			RBSI			LBSI			LTHI			LKNE			LTIB			LANK			LHEE			LTOE			RTHI			RKNE			RTIB			RANK			RHEE			RTOE		
		X1	Y1	Z1	X2	Y2	Z2	X3	Y3	Z3	X4	Y4	Z4	X5	Y5	Z5	X6	Y6	Z6	X7	Y7	Z7	X8	Y8	Z8	X9	Y9	Z9	X10	Y10	Z10	X11	Y11	Z11	X12	Y12	Z12	X13	Y13	Z13	X14	Y14	Z14	X15	Y15	Z15	X16	Y16	Z16	X17	Y17	Z17	X18	Y18	Z18	X19	Y19	Z19	X20	Y20	Z20	X21	Y21	Z21	X22	Y22	Z22	X23	Y23	Z23	X24	Y24	Z24	X25	Y25	Z25	X26	Y26	Z26	X27	Y27	Z27	X28	Y28	Z28	X29	Y29	Z29	X30	Y30	Z30	X31	Y31	Z31	X32	Y32	Z32	X33	Y33	Z33	X34	Y34	Z34	X35	Y35	Z35	X36	Y36	Z36	X37	Y37	Z37	X38	Y38	Z38	X39	Y39	Z39	X40	Y40	Z40	X41	Y41	Z41	X42	Y42	Z42	X43	Y43	Z43
																																																																																																																																		
251	1.25	397.55283	262.29175	1470.67676	501.81726	258.09933	1463.88794	502.15222	122.64088	1395.56177	392.06546	122.09995	1401.73547	437.11032	94.08642	1291.15576	438.03299	60.65467	1152.5625	599.65002	85.78026	1190.52686	453.05243	218.09593	1230.17407	456.67215	322.60187	1097.48865	299.6741	195.04225	1255.13037	266.28943	261.36279	1105.71362	255.14883	294.22827	962.80334	313.44894	386.19052	995.39563	390.94757	464.62717	1002.45496	377.18201	479.9039	959.94934	403.70816	513.33282	962.32458	415.31873	529.86438	967.0675	403.7637	509.56998	997.54333	597.52161	160.3622	1258.79443	695.1532	200.86195	1073.45483	724.46747	187.8904	992.95258	690.6579	327.26178	1080.96155	648.83423	363.23776	1110.0946	683.71521	389.00662	1088.01355	676.96875	431.91846	1118.41309	676.55164	445.52426	1134.23254	669.16144	410.9097	1140.72009	325.20337	266.82791	892.49731	560.44769	272.875	887.46948	479.3826	96.57965	912.15271	407.43494	97.94411	913.97321	346.2218	295.24881	633.38025	298.7157	159.07434	448.50946	323.01941	194.87511	323.50961	309.10971	124.08664	81.12199	356.82474	88.55614	15.29536	288.88043	328.87338	50.29743	540.30627	281.66998	557.1109	611.54327	174.34715	439.83774	588.64832	194.50099	236.31438	608.33826	144.37701	75.90926	572.09436	93.22961	14.65593	612.42914	339.31186	47.98795
252	1.255	397.19998	261.90482	1470.67798	501.54443	257.7944	1463.86914	501.97128	122.39646	1395.56628	391.63184	121.77554	1401.85938	436.64783	93.73222	1291.05847	437.73364	60.54778	1152.59851	599.37323	85.94788	1190.40259	452.76453	217.77126	1230.25122	456.47034	322.48502	1097.64233	299.50101	194.75668	1254.97961	265.87802	260.7825	1105.30579	254.78987	293.03134	962.15558	312.19897	385.4845	994.59747	388.9379	464.5817	1001.54163	375.34076	479.55511	958.98944	401.78012	513.10126	961.18622	413.56012	529.66949	965.96191	401.77612	509.63919	996.53503	597.20428	160.04295	1258.98755	696.08301	202.57477	1075.16064	725.92419	191.02663	994.83588	691.60364	328.85284	1085.10266	649.40198	364.45758	1114.24939	684.80603	390.4173	1093.28784	677.71783	432.79337	1124.65564	677.3584	446.03268	1140.65918	669.42047	411.32309	1146.27661	325.20703	266.91815	892.49103	560.38965	272.80042	887.49487	479.27008	96.60677	912.12555	407.39236	97.94358	913.94922	346.22473	295.29047	633.3504	298.65491	159.18604	448.47543	322.95883	194.98204	323.41318	309.11224	124.06559	81.05709	356.81317	88.57822	15.35381	288.87576	328.88245	50.29546	540.35352	281.62515	557.10089	611.4895	174.24951	439.83322	588.66266	194.45416	236.28551	608.30841	144.35672	75.87543	572.073	93.28698	14.64481	612.37433	339.20984	47.88613
253	1.26	396.95615	261.56378	1470.68298	501.29337	257.58844	1463.90466	501.91891	122.15032	1395.66858	391.4884	121.49905	1401.72473	436.27188	93.54404	1290.99536	437.44165	60.36078	1152.54919	599.06427	85.99068	1190.31946	452.52444	217.63216	1230.48059	456.34073	322.41257	1097.82117	299.28043	194.67534	1254.82349	265.43515	260.10724	1104.95496	254.52052	291.73343	961.58398	310.93845	384.80518	993.63141	386.30124	465.65427	1000.63904	373.59134	479.14795	957.78119	399.80582	512.84674	960.02704	411.55695	529.32697	964.74451	399.66101	509.57019	995.33563	597.11853	159.78841	1259.52283	696.83508	204.24052	1077.00439	727.48676	194.11995	996.78412	692.4892	330.37683	1089.24829	649.95032	365.60162	1118.48999	685.91595	391.78851	1098.72925	678.47064	433.52719	1130.84937	677.73578	446.39008	1147.0592	669.53284	411.58475	1151.76709	325.20847	267.04565	892.44629	560.39319	272.74103	887.56256	478.88959	96.59073	912.14502	407.16925	98.02284	913.96185	346.26132	295.3819	633.31415	298.66653	159.33438	448.46411	322.95883	194.98204	323.41318	309.10971	124.08664	81.12199	356.83957	88.56342	15.36744	288.88043	328.87338	50.29743	540.42743	281.64075	557.17249	611.49731	174.26552	439.85822	588.6886	194.49936	236.31621	608.30682	144.40028	75.91055	572.05981	93.22913	14.61631	612.34613	339.31577	48.00404
254	1.265	396.6265	261.32822	1470.71545	501.00967	257.30573	1463.9198	501.37265	121.78688	1395.58191	391.14688	121.17176	1401.74451	436.12393	93.37453	1290.8894	437.09344	60.37063	1152.41296	598.65039	86.17719	1190.26147	452.36761	217.50354	1230.5686	456.17795	322.27115	1097.98779	298.93433	194.50487	1254.65381	265.20776	259.49677	1104.48108	254.02614	290.33682	960.95093	309.55402	383.9968	992.82422	384.22784	465.4072	999.56329	371.51572	478.69653	956.61438	397.70212	512.63361	958.82141	409.44324	529.19678	963.51233	397.29062	509.42438	994.13715	596.40125	159.35941	1259.48999	697.78363	205.89574	1078.88257	728.95782	197.30397	998.79974	693.24561	331.89536	1093.35632	650.32794	366.60892	1122.76221	686.9223	393.09457	1104.12097	678.99963	434.1907	1136.93298	678.1178	446.77585	1153.42224	669.67529	411.8912	1157.35767	325.20316	267.14981	892.43396	560.41199	272.55472	887.55713	478.72577	96.56866	912.19061	406.76819	98.07548	914.01031	346.39618	295.49417	633.34296	298.64441	159.63936	448.47437	322.99701	195.04266	323.43381	309.10971	124.08664	81.12199	356.81689	88.54414	15.30649	288.88043	328.87338	50.29743	540.48468	281.58167	557.13739	611.48212	174.15776	439.81192	588.67944	194.43132	236.35921	608.35327	144.33707	75.91293	572.05981	93.22913	14.61631	612.38898	339.21204	47.93206
255	1.27	396.32272	261.04132	1470.75745	500.62546	256.99884	1463.9198	501.29422	121.56868	1395.52295	390.9556	120.87946	1401.76917	435.6312	93.09486	1290.87927	436.90097	60.3817	1152.22815	598.2608	86.41246	1190.18542	452.03821	217.35188	1230.60693	456.04391	322.23083	1098.13428	298.56522	194.40858	1254.49292	264.78772	258.83899	1104.09192	253.57791	288.73935	960.22314	308.1994	383.2366	991.86249	382.00992	465.22617	998.58868	369.54425	478.16425	955.38879	395.54153	512.37183	957.61407	407.19296	528.97412	962.25763	394.88873	509.27481	992.94568	596.06897	159.22653	1259.74695	698.9812	207.67931	1080.95227	730.43103	200.31822	1001.02075	694.14417	333.29953	1097.66418	650.7746	367.6622	1126.88074	687.85742	394.30261	1109.37061	679.49542	434.80386	1142.9292	678.42041	447.07611	1159.74414	669.66107	412.1405	1162.75244	325.21658	267.24591	892.43616	560.39923	272.43524	887.65979	478.61929	96.56676	912.19861	406.69635	98.08736	913.96838	346.45679	295.57639	633.35742	298.64966	159.66504	448.42883	322.99701	195.04266	323.43381	309.10971	124.08664	81.12199	356.82556	88.58536	15.32376	288.92319	328.89767	50.25929	540.52032	281.52008	557.11804	611.44885	174.10312	439.83847	588.72943	194.3611	236.33966	608.3335	144.32494	75.89811	572.0777	93.3117	14.63753	612.46997	339.27576	47.98606
256	1.275	396.06332	260.70587	1470.71985	500.43051	256.78204	1463.99951	501.05704	121.36774	1395.48645	390.83374	120.60211	1401.66614	435.26096	92.88074	1290.73657	436.92593	60.2244	1152.12683	598.01331	86.52953	1190.10181	451.86105	217.21896	1230.66663	456.01208	322.13254	1098.21619	298.31732	194.3152	1254.43359	264.36313	258.1944	1103.49316	253.18144	287.25909	959.5094	306.76694	382.36099	990.96423	379.53955	465.0473	997.49207	367.46698	477.63309	954.16156	393.11755	512.10834	956.38062	404.87543	528.69739	960.992	392.31226	509.07141	991.74756	595.57916	158.81396	1259.94128	699.95972	209.31918	1082.86218	731.84497	203.29147	1003.17358	694.91614	334.68716	1101.84741	651.37103	368.80887	1131.29565	688.69904	395.51135	1114.7406	679.89539	435.31668	1148.99585	678.63867	447.25174	1165.94897	669.65179	412.35773	1168.09998	325.17661	267.37299	892.45447	560.43622	272.32599	887.73761	478.48935	96.53191	912.20569	406.5737	98.11512	913.96704	346.51526	295.70599	633.31873	298.62781	159.71402	448.45874	323.00961	195.09346	323.42368	309.10971	124.08664	81.12199	356.80273	88.60248	15.29773	288.94147	328.90625	50.3076	540.57837	281.48645	557.17651	611.47235	174.03819	439.83911	588.72205	194.38181	236.33215	608.33112	144.32408	75.93233	572.09436	93.22961	14.65593	612.33234	339.27127	47.95417
